<svg xmlns="http://www.w3.org/2000/svg" viewBox="0 0 284.00 402.00">
    <path fill="#363636" fill-opacity="1" stroke="#363636" stroke-opacity="0" stroke-width="0" id="tSvg39508c699b" title="Rectangle 1" d="M0 0H284V402H0Z"/>
    <path fill="#55baab" stroke="none" fill-opacity="1" stroke-width="1" stroke-opacity="1" title="Path 2" d="M214.3354 231.297C216.7489 231.1878 234.9027 229.486 229.5512 235.4338C227.2864 235.603 215.1712 235.933 214.0844 234.7993C213.6277 233.4682 213.9147 232.5832 214.3354 231.297ZM189.8439 251.5068C194.3074 251.4733 198.7487 251.445 203.2122 251.4913C206.9167 251.5295 206.0147 254.7125 205.6127 257.4677C204.1067 257.4686 202.6008 257.4694 201.0949 257.4703C201.0905 261.8801 201.0861 266.2899 201.0817 270.6997C201.0676 272.1835 201.0535 273.6673 201.0394 275.151C198.8464 275.3167 196.5699 275.2445 194.3652 275.2118C194.1717 269.5455 194.3104 263.1962 194.3109 257.48C192.8044 257.5055 191.2132 257.4778 189.6992 257.4735C189.2197 255.2055 189.1222 253.7082 189.8439 251.5068ZM169.0924 217.3268C171.4187 217.207 184.4362 216.8673 185.7052 217.758C186.2417 218.6718 186.2004 219.3588 186.2494 220.3737C186.4472 224.4755 184.4372 223.805 181.0657 223.724C181.0767 228.4635 181.0878 233.203 181.0989 237.9425C181.0867 239.3402 181.0746 240.7378 181.0624 242.1355C178.6364 242.6518 176.4897 242.6303 174.0657 242.163C173.7837 236.5975 173.8337 229.3493 173.9794 223.7285C168.5089 223.9208 167.7139 223.041 169.0924 217.3268ZM208.4539 251.5205C212.6677 251.4455 217.6062 251.3882 221.7787 251.594C222.0944 253.9788 221.9922 255.0943 221.7957 257.4445C219.7744 257.546 217.1807 257.476 215.1162 257.4783C215.1113 258.5747 215.1065 259.6711 215.1017 260.7675C220.3622 260.653 220.3824 260.673 219.8384 265.8815C218.4542 265.9992 216.4629 265.996 215.0267 266.0323C215.0209 267.0575 214.9424 268.098 215.2482 269.0675C215.4191 269.1291 215.59 269.1907 215.7609 269.2522C217.8619 269.241 219.8532 269.1865 221.9424 269.431C222.1892 271.7458 222.2127 272.8975 221.7134 275.1653C217.7262 275.3822 212.5137 275.3017 208.5119 275.1695C208.2294 272.7285 208.3387 268.2768 208.3427 265.689C208.3164 260.9658 208.3534 256.2425 208.4539 251.5205ZM175.9657 251.5993C178.4664 251.4327 180.6194 251.6048 183.1064 251.7595C184.7974 259.4775 187.3402 267.4038 188.9327 275.132C183.0272 275.59 181.8992 276.116 180.6527 270.1187C179.2529 269.8957 176.6742 269.9878 175.1459 270.0003C174.7344 271.847 174.4357 273.0813 173.8389 274.8822C171.2739 275.3552 170.1714 275.335 167.6719 275.0212C168.904 270.2213 170.1361 265.4214 171.3682 260.6215C172.0442 258.018 172.8419 254.5445 173.7247 252.0638C174.3684 251.5183 175.0729 251.6247 175.9657 251.5993ZM176.5214 265.232C177.2592 265.7058 177.6079 265.5195 178.6287 265.5042C178.8432 265.4685 179.0578 265.4327 179.2724 265.397C179.6374 264.2752 178.4944 259.5517 177.7202 258.6975C177.2594 260.4693 175.9539 263.8275 176.5214 265.232ZM226.5742 251.569C234.3309 251.0238 243.6264 251.1758 243.8189 261.3207C243.9014 265.771 243.7064 269.3183 240.5294 272.8443C237.0247 275.8777 230.3142 275.448 225.9157 275.1067C225.1262 270.933 225.7169 258.1415 225.6912 253.2203C225.6864 252.3543 225.9909 252.0042 226.5742 251.569ZM232.3757 268.7925C233.4092 269.1957 234.6834 268.7105 235.5374 268.0553C236.5877 265.8995 237.1967 262.845 236.4484 260.4915C235.7517 258.3005 234.2729 257.8867 232.2132 257.6628C232.1832 259.6473 231.9382 267.2728 232.3757 268.7925ZM149.0022 217.352C150.6762 217.1833 152.4949 217.4412 154.1822 217.6078C154.3562 221.133 153.9434 232.3615 154.5127 234.7445C155.6429 236.0408 157.0379 235.6843 158.3949 235.0725C159.2604 233.8612 158.8702 220.1528 158.8827 217.5657C162.2522 217.2405 163.3997 217.273 166.7399 217.6178C166.8142 220.4417 166.7657 223.531 166.7737 226.375C166.7824 229.5532 167.1132 235.1205 165.8919 237.9438C162.9247 244.948 149.2247 243.7415 146.9924 236.877C145.8084 233.2357 146.6202 227.1645 146.4589 223.2955C146.3897 221.6332 145.9374 219.4452 146.6664 217.9945C147.5834 217.2655 147.6212 217.4855 149.0022 217.352ZM198.4614 216.829C201.0097 216.4942 204.2364 217.2028 206.3284 218.6763C212.5972 223.0917 212.6157 236.4258 206.2467 240.7852C204.4184 242.0368 202.9377 242.3687 200.7712 242.6632C197.9667 242.8313 195.0557 242.4263 192.7714 240.7335C185.8732 235.6215 186.5307 221.3843 194.6814 217.7302C195.8764 217.1945 197.1784 217.0198 198.4614 216.829ZM197.3079 224.7925C194.6924 227.3922 194.6569 233.9353 198.4162 235.57C198.7299 235.7065 199.7394 235.7953 200.0992 235.8055C204.7949 234.135 205.3499 224.901 199.2374 223.7055C198.7034 223.9492 197.7084 224.3945 197.3079 224.7925ZM154.8537 251.5778C158.2987 251.2208 160.5444 251.1335 163.9942 251.822C164.4644 257.56 165.0289 269.3725 164.8947 274.8925C162.1239 275.393 161.0952 275.3117 158.3992 274.91C158.0482 271.3145 157.8292 266.5285 157.8242 262.9375C157.8016 262.655 157.779 262.3725 157.7564 262.09C157.6691 262.091 157.5817 262.092 157.4944 262.093C156.3219 264.33 155.7484 267.2735 155.0282 269.7165C154.6279 271.0752 153.8639 274.5543 152.4412 275.184C151.7507 275.4897 150.3197 275.218 149.6287 274.9523C148.3754 274.4703 145.1764 262.3952 144.2857 260.2792C144.6422 263.896 144.4182 271.217 143.9779 274.8728C142.3439 275.2002 139.3584 275.6795 137.9152 274.7847C137.4639 272.8945 138.0837 253.758 138.4854 251.8943C139.1744 251.3845 140.1274 251.4132 141.0014 251.3448C147.5922 250.723 148.0039 252.7217 149.6639 258.4073C150.0992 259.8983 150.8309 261.64 151.4412 263.088C152.0037 260.0397 153.8592 254.6097 154.8537 251.5778ZM124.6374 209.5725C128.2734 209.3978 132.5847 209.3855 136.1447 209.8218C136.8484 213.9073 138.4262 219.6782 139.4754 223.7878C140.9917 229.7275 142.5254 236.2683 144.2462 242.123C142.8289 242.2227 141.0064 242.3055 139.6382 242.4755C134.1387 243.1585 133.8929 240.9438 132.8367 236.3057C132.7538 236.0012 132.671 235.6966 132.5882 235.392C131.5967 234.6325 126.4697 234.983 124.9082 235.001C124.7874 236.08 124.6479 237.1568 124.4899 238.231C123.6307 243.8403 118.8659 242.5695 114.7059 241.8758C117.3819 233.1055 120.2729 219.3185 123.0442 210.1052C123.1472 209.7627 124.1682 209.6642 124.6374 209.5725ZM126.5642 229.1417C127.3982 229.3003 127.5862 229.2945 128.4367 229.244C129.1717 229.2542 130.3474 229.3705 130.9472 229.0685C130.7467 227.6945 129.3157 219.7482 128.7427 219.0935C128.4729 220.273 126.4214 228.6992 126.5642 229.1417ZM211.0754 117.6745C213.1394 117.7345 215.8687 118.0387 217.8827 118.4587C222.5977 119.4423 223.9334 120.8472 226.3842 124.5425C219.7444 129.5935 219.2304 134.9372 219.4147 142.712C219.8279 160.135 224.2537 191.0683 200.7359 195.4753C192.4959 197.0195 186.7574 192.5313 180.1737 188.5965C177.4577 193.1412 174.7974 194.7175 169.5647 195.8257C165.5732 196.6713 159.5859 196 156.2772 193.4648C143.6682 183.776 145.9477 164.508 146.1424 150.4597C146.2814 140.449 148.2519 131.2558 138.8984 124.7968C141.4447 120.8462 144.3782 117.2492 149.6992 118.1758C152.9289 118.738 154.8457 120.4963 156.7047 123.0865C161.2364 131.246 158.6262 148.5498 159.0917 157.962C159.1704 164.6313 158.0792 179.001 166.1204 181.6898C170.5039 182.5288 173.8599 178.267 174.5839 174.4298C177.5512 158.8498 175.2462 142.0355 176.0234 126.3865C176.3092 120.6335 189.5709 122.3822 189.5172 133.0132C189.6882 142.054 188.7689 150.9535 189.0617 160.0333C189.2579 166.119 188.7829 173.8207 192.1159 179.232C193.5904 181.6263 195.9412 181.9052 198.4824 182.3917C208.6872 177.698 205.4442 153.1365 205.3807 143.7473C205.2992 131.7257 205.7432 128.1472 211.0754 117.6745ZM99.6542 113.8495C105.9079 113.126 116.1214 115.545 121.0994 119.5802C125.7497 123.3498 127.2829 127.8483 127.9647 133.4878C129.3682 144.7968 126.1577 156.1942 119.0579 165.1083C110.7032 175.7378 95.3167 186.4227 81.6597 188.0522C78.8132 188.392 73.8384 188.021 71.5972 186.0787C67.2964 182.3522 68.9979 176.33 68.4037 171.571C68.3918 171.4809 68.38 171.3908 68.3682 171.3008C79.0507 174.2125 85.6499 172.747 94.7349 166.8695C100.3847 163.2143 104.9119 160.863 108.0424 154.4355C110.6304 149.1218 113.4942 142.9065 111.7574 136.9087C109.3919 128.7695 99.5759 127.941 92.7712 130.2778C83.3229 133.5222 73.6324 144.5975 69.5232 153.4608C57.8534 178.6308 50.6142 222.0395 59.4917 248.5647C66.9464 269.1665 83.5222 279.818 103.5827 266.3678C108.2264 263.7432 116.1449 256.6645 121.6032 260.382C123.4207 261.6655 125.1827 265.6028 124.3669 267.7555C119.6614 280.3155 99.7069 286.512 87.8132 287.9277C56.9167 291.37 42.9327 260.711 40.7919 234.6412C38.8012 208.1575 41.4109 180.1488 50.8974 155.225C58.3239 135.7132 78.1674 115.9155 99.6542 113.8495Z" id="tSvg85358466d3"/>
</svg>