<svg id="svg" version="1.1" viewBox="0 0 300 300" xmlns="http://www.w3.org/2000/svg">
<svg xmlns="http://www.w3.org/2000/svg">
<g>
    <path d="M139.0375,0h21.67525c1.864,0.66172 4.587,0.75269 6.60825,0.98178c14.362,1.62762 30.66525,6.16092 43.83875,11.98574c31.044,13.88923 56.46775,37.88373 72.13025,68.07273c6.6075,13.201 11.43,27.22375 14.335,41.69775c0.8675,4.54525 1.3425,9.18925 1.8925,13.782c0.11,0.91925 0.2075,1.67225 0.4825,2.55875v21.89675c-0.6675,2.704 -1.1775,8.3615 -1.5675,11.402c-0.5525,4.15375 -1.3825,8.26625 -2.48,12.3105c-2.13,8.08925 -5.11,17.74225 -8.4175,25.42375c-12.4975,28.52675 -33.5475,52.46825 -60.24,68.51075c-15.797,9.5475 -31.389,14.8075 -49.34175,18.8775c-3.1155,0.705 -14.491,1.8725 -16.0435,2.5h-23.32525c-1.70625,-0.6425 -12.53625,-1.6325 -15.91975,-2.3925c-15.76,-3.545 -30.024,-8.035 -44.217,-15.7525c-29.30175,-15.9175 -52.4845,-41.11925 -65.9052,-71.6455c-5.01527,-11.5625 -8.586,-24.659 -10.87763,-37.0395c-0.6535,-3.5305 -0.62435,-9.02225 -1.66492,-12.2455v-21.62875c0.52103,-1.477 0.93812,-6.6495 1.14481,-8.472c0.29498,-2.50825 0.68585,-5.004 1.17177,-7.48225c2.41594,-12.9415 7.84032,-29.3795 13.75957,-41.09325c18.6896,-37.13075 52.06885,-64.74277 92.0446,-76.14122c8.96775,-2.6359 17.584,-4.64987 26.92525,-5.39709c1.28975,-0.10318 2.782,-0.27301 3.9915,-0.70993z" fill="#363636"/>
    <path d="M108.58775,62.8495c6.25375,-0.7235 16.46725,1.6955 21.44525,5.73075c4.65025,3.7695 6.1835,8.268 6.86525,13.9075c1.4035,11.309 -1.807,22.7065 -8.90675,31.6205c-8.35475,10.6295 -23.74125,21.3145 -37.39825,22.944c-2.8465,0.33975 -7.82125,-0.03125 -10.0625,-1.9735c-4.30075,-3.7265 -2.59925,-9.74875 -3.1935,-14.50775l-0.0355,-0.27025c10.6825,2.91175 17.28175,1.44625 26.36675,-4.43125c5.64975,-3.65525 10.177,-6.0065 13.3075,-12.434c2.588,-5.31375 5.45175,-11.529 3.715,-17.52675c-2.3655,-8.13925 -12.1815,-8.96775 -18.98625,-6.631c-9.44825,3.2445 -19.13875,14.31975 -23.248,23.183c-11.66975,25.17 -18.909,68.57875 -10.0315,95.104c7.45475,20.60175 24.0305,31.25325 44.091,17.803c4.64375,-2.6245 12.56225,-9.70325 18.0205,-5.98575c1.8175,1.2835 3.5795,5.22075 2.76375,7.3735c-4.7055,12.56 -24.66,18.7565 -36.55375,20.17225c-30.8965,3.44225 -44.8805,-27.21675 -47.02125,-53.2865c-1.99075,-26.48375 0.619,-54.4925 10.1055,-79.41625c7.4265,-19.51175 27.27,-39.3095 48.75675,-41.3755z" fill="#55baab"/>
    <path d="M220.009,66.6745c2.064,0.06 4.79325,0.36425 6.80725,0.78425c4.715,0.9835 6.05075,2.3885 8.5015,6.08375c-6.63975,5.051 -7.15375,10.39475 -6.9695,18.1695c0.41325,17.423 4.839,48.35625 -18.67875,52.76325c-8.24,1.54425 -13.9785,-2.944 -20.56225,-6.87875c-2.716,4.54475 -5.37625,6.121 -10.609,7.22925c-3.9915,0.8455 -9.97875,0.17425 -13.2875,-2.361c-12.609,-9.68875 -10.3295,-28.95675 -10.13475,-43.005c0.139,-10.01075 2.1095,-19.204 -7.244,-25.663c2.54625,-3.9505 5.47975,-7.5475 10.80075,-6.621c3.22975,0.56225 5.1465,2.3205 7.0055,4.91075c4.53175,8.1595 1.9215,25.46325 2.387,34.8755c0.07875,6.66925 -1.0125,21.039 7.02875,23.72775c4.3835,0.839 7.7395,-3.42275 8.4635,-7.26c2.96725,-15.58 0.66225,-32.39425 1.4395,-48.04325c0.28575,-5.753 13.5475,-4.00425 13.49375,6.62675c0.171,9.04075 -0.74825,17.94025 -0.4555,27.02c0.19625,6.08575 -0.27875,13.7875 3.05425,19.19875c1.4745,2.39425 3.82525,2.67325 6.3665,3.15975c10.20475,-4.69375 6.96175,-29.25525 6.89825,-38.6445c-0.0815,-12.0215 0.3625,-15.6 5.69475,-26.07275z" fill="#55baab"/>
    <path d="M133.571,158.5725c3.636,-0.17475 7.94725,-0.187 11.50725,0.24925c0.70375,4.0855 2.2815,9.8565 3.33075,13.966c1.51625,5.93975 3.05,12.4805 4.77075,18.33525c-1.41725,0.09975 -3.23975,0.1825 -4.608,0.3525c-5.4995,0.683 -5.74525,-1.53175 -6.8015,-6.16975l-0.2485,-0.91375c-0.9915,-0.7595 -6.1185,-0.409 -7.68,-0.391c-0.12075,1.079 -0.26025,2.15575 -0.41825,3.23c-0.85925,5.60925 -5.624,4.3385 -9.784,3.64475c2.676,-8.77025 5.567,-22.55725 8.33825,-31.7705c0.103,-0.3425 1.124,-0.441 1.59325,-0.53275z" fill="#55baab"/>
    <path d="M137.67625,168.0935c0.573,0.65475 2.004,8.601 2.2045,9.975c-0.59975,0.302 -1.7755,0.18575 -2.5105,0.1755c-0.8505,0.0505 -1.0385,0.05625 -1.8725,-0.10225c-0.14275,-0.4425 1.90875,-8.86875 2.1785,-10.04825z" fill="#363636"/>
    <path d="M163.78725,200.57775c3.445,-0.357 5.69075,-0.44425 9.1405,0.24425c0.47025,5.738 1.03475,17.5505 0.9005,23.0705c-2.77075,0.5005 -3.7995,0.41925 -6.4955,0.0175c-0.351,-3.5955 -0.57,-8.3815 -0.575,-11.9725l-0.06775,-0.8475l-0.262,0.003c-1.1725,2.237 -1.746,5.1805 -2.46625,7.6235c-0.40025,1.35875 -1.16425,4.83775 -2.587,5.4675c-0.6905,0.30575 -2.1215,0.034 -2.8125,-0.23175c-1.25325,-0.482 -4.45225,-12.557 -5.343,-14.673c0.3565,3.61675 0.1325,10.93775 -0.30775,14.5935c-1.634,0.3275 -4.6195,0.80675 -6.06275,-0.088c-0.45125,-1.89025 0.1685,-21.02675 0.57025,-22.8905c0.689,-0.50975 1.642,-0.481 2.516,-0.5495c6.59075,-0.62175 7.0025,1.377 8.6625,7.0625c0.43525,1.491 1.167,3.23275 1.77725,4.68075c0.5625,-3.04825 2.418,-8.47825 3.4125,-11.51025z" fill="#55baab"/>
    <path d="M207.395,165.829c2.54825,-0.33475 5.775,0.37375 7.867,1.84725c6.26875,4.4155 6.28725,17.7495 -0.08175,22.109c-1.82825,1.2515 -3.309,1.5835 -5.4755,1.878c-2.8045,0.168 -5.7155,-0.237 -7.99975,-1.92975c-6.89825,-5.112 -6.24075,-19.34925 1.91,-23.00325c1.195,-0.53575 2.497,-0.7105 3.78,-0.90125z" fill="#55baab"/>
    <path d="M208.171,172.7055c6.1125,1.1955 5.5575,10.4295 0.86175,12.1c-0.35975,-0.01025 -1.36925,-0.099 -1.683,-0.2355c-3.75925,-1.63475 -3.72375,-8.17775 -1.10825,-10.7775c0.4005,-0.398 1.3955,-0.84325 1.9295,-1.087z" fill="#363636"/>
    <path d="M157.93575,166.352c1.674,-0.16875 3.49275,0.08925 5.18,0.25575c0.174,3.52525 -0.23875,14.75375 0.3305,17.13675c1.13025,1.29625 2.52525,0.93975 3.88225,0.328c0.8655,-1.21125 0.47525,-14.91975 0.48775,-17.50675c3.3695,-0.32525 4.517,-0.29275 7.85725,0.052c0.07425,2.824 0.02575,5.91325 0.03375,8.75725c0.00875,3.17825 0.3395,8.7455 -0.88175,11.56875c-2.96725,7.00425 -16.66725,5.79775 -18.8995,-1.06675c-1.184,-3.64125 -0.37225,-9.7125 -0.5335,-13.5815c-0.06925,-1.66225 -0.5215,-3.85025 0.2075,-5.301c0.917,-0.729 0.95475,-0.509 2.33575,-0.6425z" fill="#55baab"/>
    <path d="M235.50775,200.569c7.75675,-0.54525 17.05225,-0.39325 17.24475,9.75175c0.0825,4.45025 -0.1125,7.9975 -3.2895,11.5235c-3.50475,3.0335 -10.21525,2.60375 -14.61375,2.2625c-0.7895,-4.17375 -0.19875,-16.96525 -0.2245,-21.8865c-0.00475,-0.866 0.29975,-1.216 0.883,-1.65125z" fill="#55baab"/>
    <path d="M241.14675,206.66275c2.05975,0.224 3.5385,0.63775 4.23525,2.82875c0.74825,2.3535 0.13925,5.408 -0.911,7.56375c-0.854,0.65525 -2.12825,1.1405 -3.16175,0.73725c-0.4375,-1.51975 -0.1925,-9.14525 -0.1625,-11.12975z" fill="#363636"/>
    <path d="M184.89925,200.59925c2.50075,-0.1665 4.65375,0.0055 7.14075,0.16025c1.691,7.718 4.23375,15.64425 5.82625,23.3725c-5.9055,0.458 -7.0335,0.984 -8.28,-5.01325c-1.39975,-0.223 -3.9785,-0.131 -5.50675,-0.1185c-0.4115,1.84675 -0.71025,3.081 -1.307,4.882c-2.565,0.473 -3.6675,0.45275 -6.167,0.139l3.69625,-14.39975c0.676,-2.6035 1.47375,-6.077 2.3565,-8.55775c0.64375,-0.5455 1.34825,-0.439 2.241,-0.4645z" fill="#55baab"/>
    <path d="M186.65375,207.6975c0.77425,0.85425 1.91725,5.57775 1.55225,6.6995l-0.64375,0.10725c-1.02075,0.01525 -1.3695,0.2015 -2.10725,-0.27225c-0.5675,-1.4045 0.738,-4.76275 1.19875,-6.5345z" fill="#363636"/>
    <path d="M217.3875,200.5205c4.21375,-0.075 9.15225,-0.13225 13.32475,0.0735c0.31575,2.38475 0.2135,3.50025 0.017,5.8505c-2.02125,0.1015 -4.615,0.0315 -6.6795,0.03375l-0.0145,3.28925c5.2605,-0.1145 5.28075,-0.0945 4.73675,5.114c-1.38425,0.11775 -3.3755,0.1145 -4.81175,0.15075c-0.00575,1.02525 -0.08425,2.06575 0.2215,3.03525l0.51275,0.18475c2.101,-0.01125 4.09225,-0.06575 6.1815,0.17875c0.24675,2.31475 0.27025,3.4665 -0.229,5.73425c-3.98725,0.217 -9.19975,0.1365 -13.2015,0.00425c-0.2825,-2.441 -0.17325,-6.89275 -0.16925,-9.4805c-0.02625,-4.72325 0.01075,-9.4465 0.11125,-14.1685z" fill="#55baab"/>
    <path d="M178.026,166.32675c2.32625,-0.11975 15.34375,-0.4595 16.61275,0.43125c0.5365,0.91375 0.49525,1.60075 0.54425,2.61575c0.19775,4.10175 -1.81225,3.43125 -5.18375,3.35025l0.03325,14.2185l-0.0365,4.193c-2.426,0.51625 -4.57275,0.49475 -6.99675,0.0275c-0.282,-5.5655 -0.232,-12.81375 -0.08625,-18.4345c-5.4705,0.19225 -6.2655,-0.6875 -4.887,-6.40175z" fill="#55baab"/>
    <path d="M198.7775,200.50675c4.4635,-0.0335 8.90475,-0.06175 13.36825,-0.0155c3.7045,0.03825 2.8025,3.22125 2.4005,5.9765l-4.51775,0.0025l-0.01325,13.2295l-0.04225,4.45125c-2.193,0.16575 -4.4695,0.0935 -6.67425,0.06075c-0.1935,-5.66625 -0.05475,-12.0155 -0.05425,-17.73175c-1.5065,0.0255 -3.09775,-0.00225 -4.61175,-0.0065c-0.4795,-2.268 -0.577,-3.76525 0.14475,-5.96675z" fill="#55baab"/>
    <path d="M223.269,180.297c2.4135,-0.10925 20.56725,-1.811 15.21575,4.13675c-2.26475,0.16925 -14.38,0.49925 -15.46675,-0.6345c-0.45675,-1.331 -0.16975,-2.216 0.251,-3.50225z" fill="#55baab"/>
</g>
</svg>
</svg>