<?xml version="1.0" encoding="UTF-8" standalone="no"?><!-- Generator: Gravit.io --><svg xmlns="http://www.w3.org/2000/svg" xmlns:xlink="http://www.w3.org/1999/xlink" style="isolation:isolate" viewBox="800.579 961 300 300" width="300pt" height="300pt"><g><circle vector-effect="non-scaling-stroke" cx="950.5789640219856" cy="1111" r="149.9999999999999" fill="rgb(53,53,53)"/><path d=" M 878.096 1081.431 C 878.096 1085.502 877.264 1090.798 879.58 1094.411 C 884.374 1101.889 899.857 1096.595 905.928 1093.428 C 923.198 1084.416 937.755 1069.377 937.78 1049.455 C 937.79 1041.481 936.612 1032.521 928.665 1028.156 C 905.517 1015.443 880.883 1032.569 867.845 1050.876 C 850.688 1074.967 845.873 1129.204 852.326 1157.513 C 855.451 1171.222 861.416 1184.605 873.783 1192.821 C 888.16 1202.371 906.877 1197.779 920.884 1190.67 C 927.049 1187.541 938.762 1178.886 932.139 1171.312 C 930.21 1169.107 927.259 1168.724 924.592 1169.741 C 917.274 1172.529 911.799 1178.496 903.996 1181.027 C 884.315 1187.412 871.973 1170.647 867.627 1154.162 C 860.935 1128.771 868.212 1077.248 883.331 1056.087 C 889.62 1047.285 901.938 1035.673 914.127 1039.839 C 927.333 1044.35 920.818 1059.773 915.54 1067.841 C 913.375 1071.15 909.406 1073.5 906.148 1075.682 C 895.897 1082.551 890.298 1084.592 878.096 1081.431 Z " fill="rgb(86,186,171)"/><path d=" M 948.579 1034.747 C 958.871 1040.986 955.579 1055.24 955.579 1065.747 L 955.579 1060.747 C 955.579 1070.617 954.46 1081.181 957.35 1090.747 C 958.846 1095.702 962.18 1101.625 966.842 1104.305 C 973.459 1108.109 986.774 1106.249 989.579 1098.747 C 994.485 1100.923 997.951 1104.727 1003.579 1105.537 C 1017.312 1107.513 1025.621 1098.487 1028.334 1085.577 C 1030.31 1076.178 1029.579 1066.287 1029.579 1056.747 L 1029.579 1066.747 C 1029.579 1057.561 1025.892 1039.589 1035.579 1034.747 C 1033.582 1028.335 1026.46 1027.868 1020.579 1027.747 C 1019.184 1031.113 1016.79 1034.16 1015.973 1037.747 C 1013.737 1047.567 1015.579 1059.686 1015.579 1069.747 L 1015.579 1065.747 C 1015.579 1072.825 1015.764 1079.968 1013.192 1086.707 C 1011.922 1090.035 1009.577 1093.04 1005.608 1092.12 C 998.093 1090.376 998.609 1076.703 998.58 1070.747 C 998.469 1047.748 998.579 1080.746 998.579 1057.747 C 998.579 1051.934 1000.105 1043.581 998.065 1038.087 C 996.801 1034.682 991.175 1032.084 987.742 1033.394 C 984.954 1034.457 985.301 1037.312 985.429 1039.748 C 985.759 1046.065 985.579 1052.421 985.579 1058.747 C 985.579 1081.391 986.119 1048.11 985.564 1070.747 C 985.41 1077.059 985.882 1090.349 977.505 1091.816 C 974.495 1092.343 972.094 1089.728 970.807 1087.307 C 968.138 1082.284 968.588 1073.362 968.579 1067.747 L 968.579 1067.747 C 968.579 1058.231 969.479 1048.205 968.405 1038.747 C 967.139 1027.598 953.203 1023.464 948.579 1034.747 Z " fill="rgb(86,186,171)"/><path d=" M 969.848 1185.239 L 969.848 1185.239 L 969.848 1185.239 Q 966.822 1185.239 966.822 1184.559 L 966.822 1184.559 L 966.108 1170.925 L 961.96 1184.729 L 961.96 1184.729 Q 961.824 1185.137 959.648 1185.137 L 959.648 1185.137 L 959.648 1185.137 Q 957.472 1185.137 957.404 1184.763 L 957.404 1184.763 L 953.12 1170.789 L 952.644 1184.355 L 952.644 1184.355 Q 952.61 1184.865 951.352 1185.052 L 951.352 1185.052 L 951.352 1185.052 Q 950.094 1185.239 949.261 1185.239 L 949.261 1185.239 L 949.261 1185.239 Q 948.428 1185.239 947.646 1185.137 L 947.646 1185.137 L 947.646 1185.137 Q 946.014 1184.899 946.048 1184.287 L 946.048 1184.287 L 946.83 1162.187 L 946.83 1162.187 Q 946.83 1161.371 950.978 1161.371 L 950.978 1161.371 L 950.978 1161.371 Q 952.202 1161.371 953.97 1161.558 L 953.97 1161.558 L 953.97 1161.558 Q 955.738 1161.745 955.942 1162.289 L 955.942 1162.289 L 959.75 1172.999 L 963.082 1162.255 L 963.082 1162.255 Q 963.388 1161.371 967.774 1161.371 L 967.774 1161.371 L 967.774 1161.371 Q 969.032 1161.371 970.783 1161.558 L 970.783 1161.558 L 970.783 1161.558 Q 972.534 1161.745 972.534 1162.221 L 972.534 1162.221 L 973.52 1184.525 L 973.52 1184.525 Q 973.52 1184.899 972.194 1185.069 L 972.194 1185.069 L 972.194 1185.069 Q 970.868 1185.239 969.848 1185.239 Z  M 993.366 1185.273 L 993.366 1185.273 L 993.366 1185.273 Q 990.408 1185.273 990.17 1184.321 L 990.17 1184.321 L 989.048 1179.935 L 983.642 1179.935 L 982.656 1184.151 L 982.656 1184.151 Q 982.452 1185.205 979.392 1185.205 L 979.392 1185.205 L 979.392 1185.205 Q 977.76 1185.205 976.978 1185.018 L 976.978 1185.018 L 976.978 1185.018 Q 976.196 1184.831 976.196 1184.729 L 976.196 1184.729 L 982.214 1161.711 L 982.214 1161.711 Q 982.214 1161.439 986.872 1161.439 L 986.872 1161.439 L 986.872 1161.439 Q 991.53 1161.439 991.53 1161.711 L 991.53 1161.711 L 997.412 1184.763 L 997.412 1184.763 Q 997.412 1185.001 995.848 1185.137 L 995.848 1185.137 L 995.848 1185.137 Q 994.284 1185.273 993.366 1185.273 Z  M 986.328 1168.579 L 984.492 1175.617 L 988.062 1175.617 L 986.532 1168.579 L 986.328 1168.579 L 986.328 1168.579 Z  M 1009.54 1167.593 L 1009.54 1184.661 L 1009.54 1184.661 Q 1009.54 1185.341 1006.174 1185.341 L 1006.174 1185.341 L 1006.174 1185.341 Q 1002.808 1185.341 1002.808 1184.661 L 1002.808 1184.661 L 1002.808 1167.593 L 998.728 1167.593 L 998.728 1167.593 Q 998.15 1167.593 997.912 1166.029 L 997.912 1166.029 L 997.912 1166.029 Q 997.81 1165.281 997.81 1164.499 L 997.81 1164.499 L 997.81 1164.499 Q 997.81 1163.717 997.912 1162.969 L 997.912 1162.969 L 997.912 1162.969 Q 998.15 1161.405 998.728 1161.405 L 998.728 1161.405 L 1013.518 1161.405 L 1013.518 1161.405 Q 1014.096 1161.405 1014.334 1162.969 L 1014.334 1162.969 L 1014.334 1162.969 Q 1014.436 1163.717 1014.436 1164.499 L 1014.436 1164.499 L 1014.436 1164.499 Q 1014.436 1165.281 1014.334 1166.029 L 1014.334 1166.029 L 1014.334 1166.029 Q 1014.096 1167.593 1013.518 1167.593 L 1013.518 1167.593 L 1009.54 1167.593 L 1009.54 1167.593 Z  M 1023.538 1170.857 L 1027.924 1170.857 L 1027.924 1170.857 Q 1028.57 1170.857 1028.57 1173.237 L 1028.57 1173.237 L 1028.57 1173.237 Q 1028.57 1173.951 1028.417 1174.92 L 1028.417 1174.92 L 1028.417 1174.92 Q 1028.264 1175.889 1027.856 1175.889 L 1027.856 1175.889 L 1023.538 1175.889 L 1023.538 1179.289 L 1029.794 1179.289 L 1029.794 1179.289 Q 1030.372 1179.289 1030.576 1180.785 L 1030.576 1180.785 L 1030.576 1180.785 Q 1030.678 1181.431 1030.678 1182.162 L 1030.678 1182.162 L 1030.678 1182.162 Q 1030.678 1182.893 1030.474 1184.049 L 1030.474 1184.049 L 1030.474 1184.049 Q 1030.27 1185.205 1029.794 1185.205 L 1029.794 1185.205 L 1018.166 1185.205 L 1018.166 1185.205 Q 1016.874 1185.205 1016.874 1184.151 L 1016.874 1184.151 L 1016.874 1162.289 L 1016.874 1162.289 Q 1016.874 1161.405 1017.656 1161.405 L 1017.656 1161.405 L 1029.828 1161.405 L 1029.828 1161.405 Q 1030.542 1161.405 1030.542 1164.414 L 1030.542 1164.414 L 1030.542 1164.414 Q 1030.542 1167.423 1029.828 1167.423 L 1029.828 1167.423 L 1023.538 1167.423 L 1023.538 1170.857 L 1023.538 1170.857 Z  M 1034.136 1183.641 L 1034.136 1183.641 L 1034.136 1163.241 L 1034.136 1163.241 Q 1034.136 1162.391 1034.561 1161.898 L 1034.561 1161.898 L 1034.561 1161.898 Q 1034.986 1161.405 1035.666 1161.405 L 1035.666 1161.405 L 1041.344 1161.405 L 1041.344 1161.405 Q 1046.75 1161.405 1049.555 1164.125 L 1049.555 1164.125 L 1049.555 1164.125 Q 1052.36 1166.845 1052.36 1172.693 L 1052.36 1172.693 L 1052.36 1172.693 Q 1052.36 1185.205 1041.684 1185.205 L 1041.684 1185.205 L 1035.87 1185.205 L 1035.87 1185.205 Q 1034.136 1185.205 1034.136 1183.641 Z  M 1041.004 1167.865 L 1040.664 1167.865 L 1040.664 1178.031 L 1040.664 1178.031 Q 1040.664 1178.745 1040.766 1178.932 L 1040.766 1178.932 L 1040.766 1178.932 Q 1040.868 1179.119 1041.378 1179.119 L 1041.378 1179.119 L 1041.378 1179.119 Q 1043.248 1179.119 1044.217 1177.725 L 1044.217 1177.725 L 1044.217 1177.725 Q 1045.186 1176.331 1045.186 1173.084 L 1045.186 1173.084 L 1045.186 1173.084 Q 1045.186 1169.837 1044.183 1168.851 L 1044.183 1168.851 L 1044.183 1168.851 Q 1043.18 1167.865 1041.004 1167.865 L 1041.004 1167.865 L 1041.004 1167.865 Z  M 967.401 1144.173 L 967.401 1127.901 L 967.401 1127.901 Q 967.401 1127.181 971.307 1127.181 L 971.307 1127.181 L 971.307 1127.181 Q 975.213 1127.181 975.213 1127.901 L 975.213 1127.901 L 975.213 1144.425 L 975.213 1144.425 Q 975.213 1148.097 972.585 1150.419 L 972.585 1150.419 L 972.585 1150.419 Q 969.957 1152.741 965.331 1152.741 L 965.331 1152.741 L 965.331 1152.741 Q 960.705 1152.741 957.807 1150.347 L 957.807 1150.347 L 957.807 1150.347 Q 954.909 1147.953 954.909 1143.885 L 954.909 1143.885 L 954.909 1127.937 L 954.909 1127.937 Q 954.909 1127.217 958.815 1127.217 L 958.815 1127.217 L 958.815 1127.217 Q 962.721 1127.217 962.721 1127.937 L 962.721 1127.937 L 962.721 1144.173 L 962.721 1144.173 Q 962.721 1144.893 963.477 1145.325 L 963.477 1145.325 L 963.477 1145.325 Q 964.269 1145.757 965.133 1145.757 L 965.133 1145.757 L 965.133 1145.757 Q 965.997 1145.757 966.699 1145.361 L 966.699 1145.361 L 966.699 1145.361 Q 967.401 1144.965 967.401 1144.173 L 967.401 1144.173 L 967.401 1144.173 Z  M 989.573 1133.733 L 989.573 1151.805 L 989.573 1151.805 Q 989.573 1152.525 986.009 1152.525 L 986.009 1152.525 L 986.009 1152.525 Q 982.445 1152.525 982.445 1151.805 L 982.445 1151.805 L 982.445 1133.733 L 978.125 1133.733 L 978.125 1133.733 Q 977.513 1133.733 977.261 1132.077 L 977.261 1132.077 L 977.261 1132.077 Q 977.153 1131.285 977.153 1130.457 L 977.153 1130.457 L 977.153 1130.457 Q 977.153 1129.629 977.261 1128.837 L 977.261 1128.837 L 977.261 1128.837 Q 977.513 1127.181 978.125 1127.181 L 978.125 1127.181 L 993.785 1127.181 L 993.785 1127.181 Q 994.397 1127.181 994.649 1128.837 L 994.649 1128.837 L 994.649 1128.837 Q 994.757 1129.629 994.757 1130.457 L 994.757 1130.457 L 994.757 1130.457 Q 994.757 1131.285 994.649 1132.077 L 994.649 1132.077 L 994.649 1132.077 Q 994.397 1133.733 993.785 1133.733 L 993.785 1133.733 L 989.573 1133.733 L 989.573 1133.733 Z  M 1008.019 1152.741 L 1008.019 1152.741 L 1008.019 1152.741 Q 1002.961 1152.741 999.775 1149.429 L 999.775 1149.429 L 999.775 1149.429 Q 996.589 1146.117 996.589 1139.763 L 996.589 1139.763 L 996.589 1139.763 Q 996.589 1133.409 999.811 1130.133 L 999.811 1130.133 L 999.811 1130.133 Q 1003.033 1126.857 1008.127 1126.857 L 1008.127 1126.857 L 1008.127 1126.857 Q 1013.221 1126.857 1016.353 1130.079 L 1016.353 1130.079 L 1016.353 1130.079 Q 1019.485 1133.301 1019.485 1139.835 L 1019.485 1139.835 L 1019.485 1139.835 Q 1019.485 1146.369 1016.281 1149.555 L 1016.281 1149.555 L 1016.281 1149.555 Q 1013.077 1152.741 1008.019 1152.741 Z  M 1008.037 1133.769 L 1008.037 1133.769 L 1008.037 1133.769 Q 1006.309 1133.769 1005.139 1135.353 L 1005.139 1135.353 L 1005.139 1135.353 Q 1003.969 1136.937 1003.969 1139.799 L 1003.969 1139.799 L 1003.969 1139.799 Q 1003.969 1142.661 1005.085 1144.191 L 1005.085 1144.191 L 1005.085 1144.191 Q 1006.201 1145.721 1008.019 1145.721 L 1008.019 1145.721 L 1008.019 1145.721 Q 1009.837 1145.721 1010.971 1144.173 L 1010.971 1144.173 L 1010.971 1144.173 Q 1012.105 1142.625 1012.105 1139.745 L 1012.105 1139.745 L 1012.105 1139.745 Q 1012.105 1136.865 1010.935 1135.317 L 1010.935 1135.317 L 1010.935 1135.317 Q 1009.765 1133.769 1008.037 1133.769 Z  M 1037.625 1145.541 L 1037.625 1145.541 L 1023.405 1145.541 L 1023.405 1145.541 Q 1022.757 1145.541 1022.469 1144.497 L 1022.469 1144.497 L 1022.469 1144.497 Q 1022.325 1143.957 1022.325 1143.453 L 1022.325 1143.453 L 1022.325 1143.453 Q 1022.325 1142.949 1022.469 1142.409 L 1022.469 1142.409 L 1022.469 1142.409 Q 1022.757 1141.365 1023.405 1141.365 L 1023.405 1141.365 L 1037.625 1141.365 L 1037.625 1141.365 Q 1038.273 1141.365 1038.561 1142.409 L 1038.561 1142.409 L 1038.561 1142.409 Q 1038.705 1142.949 1038.705 1143.453 L 1038.705 1143.453 L 1038.705 1143.453 Q 1038.705 1143.957 1038.561 1144.497 L 1038.561 1144.497 L 1038.561 1144.497 Q 1038.273 1145.541 1037.625 1145.541 Z  M 946.984 1152.475 L 946.984 1152.475 L 946.984 1152.475 Q 942.895 1152.475 942.566 1151.159 L 942.566 1151.159 L 941.015 1145.096 L 933.542 1145.096 L 932.179 1150.924 L 932.179 1150.924 Q 931.897 1152.381 927.667 1152.381 L 927.667 1152.381 L 927.667 1152.381 Q 925.411 1152.381 924.33 1152.123 L 924.33 1152.123 L 924.33 1152.123 Q 923.249 1151.864 923.249 1151.723 L 923.249 1151.723 L 931.568 1119.904 L 931.568 1119.904 Q 931.568 1119.528 938.007 1119.528 L 938.007 1119.528 L 938.007 1119.528 Q 944.446 1119.528 944.446 1119.904 L 944.446 1119.904 L 952.577 1151.77 L 952.577 1151.77 Q 952.577 1152.099 950.415 1152.287 L 950.415 1152.287 L 950.415 1152.287 Q 948.253 1152.475 946.984 1152.475 Z  M 937.255 1129.398 L 934.717 1139.127 L 939.652 1139.127 L 937.537 1129.398 L 937.255 1129.398 L 937.255 1129.398 Z " fill="rgb(86,186,171)"/></g></svg>