<?xml version="1.0" encoding="UTF-8" standalone="no"?><!-- Generator: Gravit.io --><svg xmlns="http://www.w3.org/2000/svg" xmlns:xlink="http://www.w3.org/1999/xlink" style="isolation:isolate" viewBox="1204 961 300 300" width="300pt" height="300pt"><g><circle vector-effect="non-scaling-stroke" cx="1353.9999999999998" cy="1111" r="149.99999999999977" fill="rgb(86,186,171)"/><path d=" M 1281.517 1081.431 C 1281.517 1085.502 1280.685 1090.798 1283.001 1094.411 C 1287.795 1101.889 1303.278 1096.595 1309.349 1093.428 C 1326.619 1084.416 1341.176 1069.377 1341.201 1049.455 C 1341.211 1041.481 1340.033 1032.521 1332.086 1028.156 C 1308.938 1015.443 1284.304 1032.569 1271.266 1050.876 C 1254.109 1074.967 1249.294 1129.204 1255.747 1157.513 C 1258.872 1171.222 1264.837 1184.605 1277.204 1192.821 C 1291.581 1202.371 1310.298 1197.779 1324.305 1190.67 C 1330.47 1187.541 1342.183 1178.886 1335.56 1171.312 C 1333.631 1169.107 1330.68 1168.724 1328.013 1169.741 C 1320.695 1172.529 1315.22 1178.496 1307.417 1181.027 C 1287.736 1187.412 1275.394 1170.647 1271.048 1154.162 C 1264.356 1128.771 1271.633 1077.248 1286.752 1056.087 C 1293.041 1047.285 1305.359 1035.673 1317.548 1039.839 C 1330.754 1044.35 1324.239 1059.773 1318.961 1067.841 C 1316.796 1071.15 1312.827 1073.5 1309.569 1075.682 C 1299.318 1082.551 1293.719 1084.592 1281.517 1081.431 Z " fill="rgb(53,53,53)" vector-effect="non-scaling-stroke" stroke-width="1" stroke="rgb(53,53,53)" stroke-linejoin="miter" stroke-linecap="butt" stroke-miterlimit="4"/><path d=" M 1352 1034.747 C 1362.292 1040.986 1359 1055.24 1359 1065.747 L 1359 1060.747 C 1359 1070.617 1357.881 1081.181 1360.771 1090.747 C 1362.267 1095.702 1365.601 1101.625 1370.263 1104.305 C 1376.88 1108.109 1390.195 1106.249 1393 1098.747 C 1397.906 1100.923 1401.372 1104.727 1407 1105.537 C 1420.733 1107.513 1429.042 1098.487 1431.755 1085.577 C 1433.731 1076.178 1433 1066.287 1433 1056.747 L 1433 1066.747 C 1433 1057.561 1429.313 1039.589 1439 1034.747 C 1437.003 1028.335 1429.881 1027.868 1424 1027.747 C 1422.605 1031.113 1420.211 1034.16 1419.394 1037.747 C 1417.158 1047.567 1419 1059.686 1419 1069.747 L 1419 1065.747 C 1419 1072.825 1419.185 1079.968 1416.613 1086.707 C 1415.343 1090.035 1412.998 1093.04 1409.029 1092.12 C 1401.514 1090.376 1402.03 1076.703 1402.001 1070.747 C 1401.89 1047.748 1402 1080.746 1402 1057.747 C 1402 1051.934 1403.526 1043.581 1401.486 1038.087 C 1400.222 1034.682 1394.596 1032.084 1391.163 1033.394 C 1388.375 1034.457 1388.722 1037.312 1388.85 1039.748 C 1389.18 1046.065 1389 1052.421 1389 1058.747 C 1389 1081.391 1389.54 1048.11 1388.985 1070.747 C 1388.831 1077.059 1389.303 1090.349 1380.926 1091.816 C 1377.916 1092.343 1375.515 1089.728 1374.228 1087.307 C 1371.559 1082.284 1372.009 1073.362 1372 1067.747 L 1372 1067.747 C 1372 1058.231 1372.9 1048.205 1371.826 1038.747 C 1370.56 1027.598 1356.624 1023.464 1352 1034.747 Z " fill="rgb(53,53,53)" vector-effect="non-scaling-stroke" stroke-width="1" stroke="rgb(53,53,53)" stroke-linejoin="miter" stroke-linecap="butt" stroke-miterlimit="4"/><path d=" M 1373.269 1185.239 L 1373.269 1185.239 L 1373.269 1185.239 Q 1370.243 1185.239 1370.243 1184.559 L 1370.243 1184.559 L 1369.529 1170.925 L 1365.381 1184.729 L 1365.381 1184.729 Q 1365.245 1185.137 1363.069 1185.137 L 1363.069 1185.137 L 1363.069 1185.137 Q 1360.893 1185.137 1360.825 1184.763 L 1360.825 1184.763 L 1356.541 1170.789 L 1356.065 1184.355 L 1356.065 1184.355 Q 1356.031 1184.865 1354.773 1185.052 L 1354.773 1185.052 L 1354.773 1185.052 Q 1353.515 1185.239 1352.682 1185.239 L 1352.682 1185.239 L 1352.682 1185.239 Q 1351.849 1185.239 1351.067 1185.137 L 1351.067 1185.137 L 1351.067 1185.137 Q 1349.435 1184.899 1349.469 1184.287 L 1349.469 1184.287 L 1350.251 1162.187 L 1350.251 1162.187 Q 1350.251 1161.371 1354.399 1161.371 L 1354.399 1161.371 L 1354.399 1161.371 Q 1355.623 1161.371 1357.391 1161.558 L 1357.391 1161.558 L 1357.391 1161.558 Q 1359.159 1161.745 1359.363 1162.289 L 1359.363 1162.289 L 1363.171 1172.999 L 1366.503 1162.255 L 1366.503 1162.255 Q 1366.809 1161.371 1371.195 1161.371 L 1371.195 1161.371 L 1371.195 1161.371 Q 1372.453 1161.371 1374.204 1161.558 L 1374.204 1161.558 L 1374.204 1161.558 Q 1375.955 1161.745 1375.955 1162.221 L 1375.955 1162.221 L 1376.941 1184.525 L 1376.941 1184.525 Q 1376.941 1184.899 1375.615 1185.069 L 1375.615 1185.069 L 1375.615 1185.069 Q 1374.289 1185.239 1373.269 1185.239 Z  M 1396.787 1185.273 L 1396.787 1185.273 L 1396.787 1185.273 Q 1393.829 1185.273 1393.591 1184.321 L 1393.591 1184.321 L 1392.469 1179.935 L 1387.063 1179.935 L 1386.077 1184.151 L 1386.077 1184.151 Q 1385.873 1185.205 1382.813 1185.205 L 1382.813 1185.205 L 1382.813 1185.205 Q 1381.181 1185.205 1380.399 1185.018 L 1380.399 1185.018 L 1380.399 1185.018 Q 1379.617 1184.831 1379.617 1184.729 L 1379.617 1184.729 L 1385.635 1161.711 L 1385.635 1161.711 Q 1385.635 1161.439 1390.293 1161.439 L 1390.293 1161.439 L 1390.293 1161.439 Q 1394.951 1161.439 1394.951 1161.711 L 1394.951 1161.711 L 1400.833 1184.763 L 1400.833 1184.763 Q 1400.833 1185.001 1399.269 1185.137 L 1399.269 1185.137 L 1399.269 1185.137 Q 1397.705 1185.273 1396.787 1185.273 Z  M 1389.749 1168.579 L 1387.913 1175.617 L 1391.483 1175.617 L 1389.953 1168.579 L 1389.749 1168.579 L 1389.749 1168.579 Z  M 1412.961 1167.593 L 1412.961 1184.661 L 1412.961 1184.661 Q 1412.961 1185.341 1409.595 1185.341 L 1409.595 1185.341 L 1409.595 1185.341 Q 1406.229 1185.341 1406.229 1184.661 L 1406.229 1184.661 L 1406.229 1167.593 L 1402.149 1167.593 L 1402.149 1167.593 Q 1401.571 1167.593 1401.333 1166.029 L 1401.333 1166.029 L 1401.333 1166.029 Q 1401.231 1165.281 1401.231 1164.499 L 1401.231 1164.499 L 1401.231 1164.499 Q 1401.231 1163.717 1401.333 1162.969 L 1401.333 1162.969 L 1401.333 1162.969 Q 1401.571 1161.405 1402.149 1161.405 L 1402.149 1161.405 L 1416.939 1161.405 L 1416.939 1161.405 Q 1417.517 1161.405 1417.755 1162.969 L 1417.755 1162.969 L 1417.755 1162.969 Q 1417.857 1163.717 1417.857 1164.499 L 1417.857 1164.499 L 1417.857 1164.499 Q 1417.857 1165.281 1417.755 1166.029 L 1417.755 1166.029 L 1417.755 1166.029 Q 1417.517 1167.593 1416.939 1167.593 L 1416.939 1167.593 L 1412.961 1167.593 L 1412.961 1167.593 Z  M 1426.959 1170.857 L 1431.345 1170.857 L 1431.345 1170.857 Q 1431.991 1170.857 1431.991 1173.237 L 1431.991 1173.237 L 1431.991 1173.237 Q 1431.991 1173.951 1431.838 1174.92 L 1431.838 1174.92 L 1431.838 1174.92 Q 1431.685 1175.889 1431.277 1175.889 L 1431.277 1175.889 L 1426.959 1175.889 L 1426.959 1179.289 L 1433.215 1179.289 L 1433.215 1179.289 Q 1433.793 1179.289 1433.997 1180.785 L 1433.997 1180.785 L 1433.997 1180.785 Q 1434.099 1181.431 1434.099 1182.162 L 1434.099 1182.162 L 1434.099 1182.162 Q 1434.099 1182.893 1433.895 1184.049 L 1433.895 1184.049 L 1433.895 1184.049 Q 1433.691 1185.205 1433.215 1185.205 L 1433.215 1185.205 L 1421.587 1185.205 L 1421.587 1185.205 Q 1420.295 1185.205 1420.295 1184.151 L 1420.295 1184.151 L 1420.295 1162.289 L 1420.295 1162.289 Q 1420.295 1161.405 1421.077 1161.405 L 1421.077 1161.405 L 1433.249 1161.405 L 1433.249 1161.405 Q 1433.963 1161.405 1433.963 1164.414 L 1433.963 1164.414 L 1433.963 1164.414 Q 1433.963 1167.423 1433.249 1167.423 L 1433.249 1167.423 L 1426.959 1167.423 L 1426.959 1170.857 L 1426.959 1170.857 Z  M 1437.557 1183.641 L 1437.557 1183.641 L 1437.557 1163.241 L 1437.557 1163.241 Q 1437.557 1162.391 1437.982 1161.898 L 1437.982 1161.898 L 1437.982 1161.898 Q 1438.407 1161.405 1439.087 1161.405 L 1439.087 1161.405 L 1444.765 1161.405 L 1444.765 1161.405 Q 1450.171 1161.405 1452.976 1164.125 L 1452.976 1164.125 L 1452.976 1164.125 Q 1455.781 1166.845 1455.781 1172.693 L 1455.781 1172.693 L 1455.781 1172.693 Q 1455.781 1185.205 1445.105 1185.205 L 1445.105 1185.205 L 1439.291 1185.205 L 1439.291 1185.205 Q 1437.557 1185.205 1437.557 1183.641 Z  M 1444.425 1167.865 L 1444.085 1167.865 L 1444.085 1178.031 L 1444.085 1178.031 Q 1444.085 1178.745 1444.187 1178.932 L 1444.187 1178.932 L 1444.187 1178.932 Q 1444.289 1179.119 1444.799 1179.119 L 1444.799 1179.119 L 1444.799 1179.119 Q 1446.669 1179.119 1447.638 1177.725 L 1447.638 1177.725 L 1447.638 1177.725 Q 1448.607 1176.331 1448.607 1173.084 L 1448.607 1173.084 L 1448.607 1173.084 Q 1448.607 1169.837 1447.604 1168.851 L 1447.604 1168.851 L 1447.604 1168.851 Q 1446.601 1167.865 1444.425 1167.865 L 1444.425 1167.865 L 1444.425 1167.865 Z  M 1370.822 1144.173 L 1370.822 1127.901 L 1370.822 1127.901 Q 1370.822 1127.181 1374.728 1127.181 L 1374.728 1127.181 L 1374.728 1127.181 Q 1378.634 1127.181 1378.634 1127.901 L 1378.634 1127.901 L 1378.634 1144.425 L 1378.634 1144.425 Q 1378.634 1148.097 1376.006 1150.419 L 1376.006 1150.419 L 1376.006 1150.419 Q 1373.378 1152.741 1368.752 1152.741 L 1368.752 1152.741 L 1368.752 1152.741 Q 1364.126 1152.741 1361.228 1150.347 L 1361.228 1150.347 L 1361.228 1150.347 Q 1358.33 1147.953 1358.33 1143.885 L 1358.33 1143.885 L 1358.33 1127.937 L 1358.33 1127.937 Q 1358.33 1127.217 1362.236 1127.217 L 1362.236 1127.217 L 1362.236 1127.217 Q 1366.142 1127.217 1366.142 1127.937 L 1366.142 1127.937 L 1366.142 1144.173 L 1366.142 1144.173 Q 1366.142 1144.893 1366.898 1145.325 L 1366.898 1145.325 L 1366.898 1145.325 Q 1367.69 1145.757 1368.554 1145.757 L 1368.554 1145.757 L 1368.554 1145.757 Q 1369.418 1145.757 1370.12 1145.361 L 1370.12 1145.361 L 1370.12 1145.361 Q 1370.822 1144.965 1370.822 1144.173 L 1370.822 1144.173 L 1370.822 1144.173 Z  M 1392.994 1133.733 L 1392.994 1151.805 L 1392.994 1151.805 Q 1392.994 1152.525 1389.43 1152.525 L 1389.43 1152.525 L 1389.43 1152.525 Q 1385.866 1152.525 1385.866 1151.805 L 1385.866 1151.805 L 1385.866 1133.733 L 1381.546 1133.733 L 1381.546 1133.733 Q 1380.934 1133.733 1380.682 1132.077 L 1380.682 1132.077 L 1380.682 1132.077 Q 1380.574 1131.285 1380.574 1130.457 L 1380.574 1130.457 L 1380.574 1130.457 Q 1380.574 1129.629 1380.682 1128.837 L 1380.682 1128.837 L 1380.682 1128.837 Q 1380.934 1127.181 1381.546 1127.181 L 1381.546 1127.181 L 1397.206 1127.181 L 1397.206 1127.181 Q 1397.818 1127.181 1398.07 1128.837 L 1398.07 1128.837 L 1398.07 1128.837 Q 1398.178 1129.629 1398.178 1130.457 L 1398.178 1130.457 L 1398.178 1130.457 Q 1398.178 1131.285 1398.07 1132.077 L 1398.07 1132.077 L 1398.07 1132.077 Q 1397.818 1133.733 1397.206 1133.733 L 1397.206 1133.733 L 1392.994 1133.733 L 1392.994 1133.733 Z  M 1411.44 1152.741 L 1411.44 1152.741 L 1411.44 1152.741 Q 1406.382 1152.741 1403.196 1149.429 L 1403.196 1149.429 L 1403.196 1149.429 Q 1400.01 1146.117 1400.01 1139.763 L 1400.01 1139.763 L 1400.01 1139.763 Q 1400.01 1133.409 1403.232 1130.133 L 1403.232 1130.133 L 1403.232 1130.133 Q 1406.454 1126.857 1411.548 1126.857 L 1411.548 1126.857 L 1411.548 1126.857 Q 1416.642 1126.857 1419.774 1130.079 L 1419.774 1130.079 L 1419.774 1130.079 Q 1422.906 1133.301 1422.906 1139.835 L 1422.906 1139.835 L 1422.906 1139.835 Q 1422.906 1146.369 1419.702 1149.555 L 1419.702 1149.555 L 1419.702 1149.555 Q 1416.498 1152.741 1411.44 1152.741 Z  M 1411.458 1133.769 L 1411.458 1133.769 L 1411.458 1133.769 Q 1409.73 1133.769 1408.56 1135.353 L 1408.56 1135.353 L 1408.56 1135.353 Q 1407.39 1136.937 1407.39 1139.799 L 1407.39 1139.799 L 1407.39 1139.799 Q 1407.39 1142.661 1408.506 1144.191 L 1408.506 1144.191 L 1408.506 1144.191 Q 1409.622 1145.721 1411.44 1145.721 L 1411.44 1145.721 L 1411.44 1145.721 Q 1413.258 1145.721 1414.392 1144.173 L 1414.392 1144.173 L 1414.392 1144.173 Q 1415.526 1142.625 1415.526 1139.745 L 1415.526 1139.745 L 1415.526 1139.745 Q 1415.526 1136.865 1414.356 1135.317 L 1414.356 1135.317 L 1414.356 1135.317 Q 1413.186 1133.769 1411.458 1133.769 Z  M 1441.046 1145.541 L 1441.046 1145.541 L 1426.826 1145.541 L 1426.826 1145.541 Q 1426.178 1145.541 1425.89 1144.497 L 1425.89 1144.497 L 1425.89 1144.497 Q 1425.746 1143.957 1425.746 1143.453 L 1425.746 1143.453 L 1425.746 1143.453 Q 1425.746 1142.949 1425.89 1142.409 L 1425.89 1142.409 L 1425.89 1142.409 Q 1426.178 1141.365 1426.826 1141.365 L 1426.826 1141.365 L 1441.046 1141.365 L 1441.046 1141.365 Q 1441.694 1141.365 1441.982 1142.409 L 1441.982 1142.409 L 1441.982 1142.409 Q 1442.126 1142.949 1442.126 1143.453 L 1442.126 1143.453 L 1442.126 1143.453 Q 1442.126 1143.957 1441.982 1144.497 L 1441.982 1144.497 L 1441.982 1144.497 Q 1441.694 1145.541 1441.046 1145.541 Z  M 1350.405 1152.475 L 1350.405 1152.475 L 1350.405 1152.475 Q 1346.316 1152.475 1345.987 1151.159 L 1345.987 1151.159 L 1344.436 1145.096 L 1336.963 1145.096 L 1335.6 1150.924 L 1335.6 1150.924 Q 1335.318 1152.381 1331.088 1152.381 L 1331.088 1152.381 L 1331.088 1152.381 Q 1328.832 1152.381 1327.751 1152.123 L 1327.751 1152.123 L 1327.751 1152.123 Q 1326.67 1151.864 1326.67 1151.723 L 1326.67 1151.723 L 1334.989 1119.904 L 1334.989 1119.904 Q 1334.989 1119.528 1341.428 1119.528 L 1341.428 1119.528 L 1341.428 1119.528 Q 1347.867 1119.528 1347.867 1119.904 L 1347.867 1119.904 L 1355.998 1151.77 L 1355.998 1151.77 Q 1355.998 1152.099 1353.836 1152.287 L 1353.836 1152.287 L 1353.836 1152.287 Q 1351.674 1152.475 1350.405 1152.475 Z  M 1340.676 1129.398 L 1338.138 1139.127 L 1343.073 1139.127 L 1340.958 1129.398 L 1340.676 1129.398 L 1340.676 1129.398 Z " fill="rgb(53,53,53)"/></g></svg>